<?xml version="1.0" encoding="UTF-8" standalone="no"?>
<svg xmlns="http://www.w3.org/2000/svg" width="91.5mm" height="60mm" viewBox="0 0 91.5 60">
<desc>Created with Glowforge for Fusion 360. To download visit: https://cam.autodesk.com/hsmposts?p=glowforge</desc>
<!-- CAM Setup Info:
Work Area Width: 91.5mm
Work Area Height: 60mm
Work Area Too Small?: false
Stock box Upper Right: 43.75,28
Stock box Lower Left: -43.75,-28
Origin: 0,0
Selected Colors: #0000d3, #02abea, #1fb714, #dd0907, #f20884, #fbf305
-->
<g id="global-translation-frame" transform="translate(45.75, 30) scale(1, -1)">
<g id="opperation-1">
    <title>Holes (Op: 1/2)</title>
    <path d="M 28.16 -14.925
             L 28.16 -23.875
             A 0.515 0.515 0 0 1 28.675 -24.39
             L 39.625 -24.39
             A 0.515 0.515 0 0 1 40.14 -23.875
             L 40.14 -14.925
             A 0.515 0.515 0 0 1 39.625 -14.41
             L 28.675 -14.41
             A 0.515 0.515 0 0 1 28.16 -14.925
             M -7.955 -17.675
             L -7.955 -13.605
             A 0.195 0.195 0 0 1 -8.15 -13.41
             L -14.55 -13.41
             A 0.195 0.195 0 0 1 -14.745 -13.605
             L -14.745 -25.675
             A 0.195 0.195 0 0 1 -14.55 -25.87
             L -8.15 -25.87
             A 0.195 0.195 0 0 1 -7.955 -25.675
             L -7.955 -17.675
             M -32.194 -17.219
             A 4.395 4.395 0 0 1 -38.231 -15.744
             A 4.395 4.395 0 0 1 -39.706 -21.781
             A 4.395 4.395 0 0 1 -38.147 -23.306
             A 0.605 0.605 0 0 0 -37.845 -23.83
             L -37.845 -25.1
             A 0.395 0.395 0 0 1 -37.45 -25.495
             L -34.45 -25.495
             A 0.395 0.395 0 0 1 -34.055 -25.1
             L -34.055 -23.83
             A 0.605 0.605 0 0 0 -33.753 -23.306
             A 4.395 4.395 0 0 1 -31.693 -20.59
             A 4.395 4.395 0 0 1 -32.194 -17.219
             M -27.496 2.916
             A 6.145 6.145 0 0 1 -20.116 7.504
             A 6.145 6.145 0 0 1 -24.704 14.884
             A 6.145 6.145 0 0 1 -32.084 10.296
             A 6.145 6.145 0 0 1 -27.496 2.916" fill="none" stroke="#0000d3" stroke-width="0.1"/>
</g>
<g id="opperation-2">
    <title>Perimeter (Op: 2/2)</title>
    <path d="M -42.855 -25
             L -42.855 25
             A 2.105 2.105 0 0 0 -40.75 27.105
             L 40.75 27.105
             A 2.105 2.105 0 0 0 42.855 25
             L 42.855 -25
             A 2.105 2.105 0 0 0 40.75 -27.105
             L 27.055 -27.105
             A 1.105 1.105 0 0 0 25.95 -26
             L 25.95 -14.305
             A 1.105 1.105 0 0 0 27.055 -13.2
             L 31.755 -13.2
             A 0.195 0.195 0 0 1 31.95 -13.005
             L 31.95 -11.605
             A 0.195 0.195 0 0 1 31.755 -11.41
             L 20.555 -11.41
             A 0.895 0.895 0 0 1 19.66 -12.305
             L 19.66 -23.586
             A 1.105 1.105 0 0 0 19.337 -24.367
             L 16.922 -26.782
             A 1.105 1.105 0 0 0 16.141 -27.105
             L 13.6 -27.105
             A 0.605 0.605 0 0 0 12.995 -26.5
             L 12.995 -15.9
             A 0.605 0.605 0 0 0 13.6 -15.295
             L 14.8 -15.295
             A 0.395 0.395 0 0 1 15.195 -14.9
             L 15.195 -11.6
             A 0.395 0.395 0 0 1 14.8 -11.205
             L 12 -11.205
             A 0.395 0.395 0 0 1 11.605 -11.6
             L 11.605 -15.675
             A 0.605 0.605 0 0 0 11 -16.28
             L 7.2 -16.28
             A 0.195 0.195 0 0 1 7.005 -16.475
             L 7.005 -26.5
             A 0.605 0.605 0 0 0 6.4 -27.105
             L 5.05 -27.105
             A 0.605 0.605 0 0 0 4.445 -26.5
             L 4.445 -20.25
             A 0.195 0.195 0 0 1 4.25 -20.055
             L 3 -20.055
             A 0.605 0.605 0 0 0 2.395 -19.45
             L 2.395 -16.768
             A 0.605 0.605 0 0 0 2.572 -16.34
             L 4.981 -13.93
             A 0.645 0.645 0 0 1 4.981 -13.019
             L 0.456 -8.493
             A 0.645 0.645 0 0 1 -0.456 -8.493
             L -4.981 -13.019
             A 0.645 0.645 0 0 1 -4.981 -13.93
             L -2.572 -16.34
             A 0.605 0.605 0 0 0 -2.395 -16.768
             L -2.395 -19.45
             A 0.605 0.605 0 0 0 -3 -20.055
             L -4.25 -20.055
             A 0.195 0.195 0 0 1 -4.445 -20.25
             L -4.445 -26.5
             A 0.605 0.605 0 0 0 -5.05 -27.105
             L -16.141 -27.105
             A 1.105 1.105 0 0 0 -16.508 -27.043
             A 0.605 0.605 0 0 0 -16.878 -26.271
             A 0.605 0.605 0 0 0 -16.836 -26.177
             A 1.395 1.395 0 0 1 -17.378 -24.281
             A 1.395 1.395 0 0 1 -18.732 -24.281
             A 0.605 0.605 0 0 0 -19.556 -24.046
             A 0.605 0.605 0 0 0 -19.598 -23.953
             A 1.105 1.105 0 0 0 -19.66 -23.586
             L -19.66 -12.305
             A 0.895 0.895 0 0 1 -20.555 -11.41
             L -31.755 -11.41
             A 0.195 0.195 0 0 1 -31.893 -11.467
             A 0.195 0.195 0 0 1 -31.95 -11.605
             L -31.95 -13.005
             A 0.195 0.195 0 0 1 -31.755 -13.2
             L -27.055 -13.2
             A 1.105 1.105 0 0 0 -25.95 -14.305
             L -25.95 -17.6
             A 0.405 0.405 0 0 0 -26.355 -18.005
             L -30.05 -18.005
             A 0.195 0.195 0 0 1 -30.245 -18.2
             L -30.245 -25.5
             A 0.195 0.195 0 0 1 -30.05 -25.695
             L -26.362 -25.695
             A 0.405 0.405 0 0 0 -26.056 -25.835
             A 0.405 0.405 0 0 0 -25.961 -26.158
             A 1.105 1.105 0 0 0 -27.055 -27.105
             L -40.75 -27.105
             A 2.105 2.105 0 0 0 -42.855 -25" fill="none" stroke="#02abea" stroke-width="0.1"/>
</g>
</g>
</svg>
