<?xml version="1.0" encoding="UTF-8" standalone="no"?>
<svg xmlns="http://www.w3.org/2000/svg" width="91.5mm" height="60mm" viewBox="0 0 91.5 60">
<desc>Created with Glowforge for Fusion 360. To download visit: https://cam.autodesk.com/hsmposts?p=glowforge</desc>
<!-- CAM Setup Info:
Work Area Width: 91.5mm
Work Area Height: 60mm
Work Area Too Small?: false
Stock box Upper Right: 43.75,28
Stock box Lower Left: -43.75,-28
Origin: 0,0
Selected Colors: #0000d3, #02abea, #1fb714, #dd0907, #f20884, #fbf305
-->
<g id="global-translation-frame" transform="translate(45.75, 30) scale(1, -1)">
<g id="opperation-1">
    <title>Leg perimeter1 (2) (Op: 1/1)</title>
    <path d="M 65.342 1.098
             L 65.342 15.964
             A 2.105 2.105 0 0 0 67.448 18.07
             L 69.448 18.07
             A 1.105 1.105 0 0 0 70.553 16.964
             L 70.553 2.519
             A 0.145 0.145 0 0 1 70.698 2.375
             L 71.257 2.375
             A 0.145 0.145 0 0 1 71.402 2.519
             L 71.402 3.019
             A 0.355 0.355 0 0 0 71.757 3.375
             L 72.188 3.375
             A 0.355 0.355 0 0 0 72.543 3.019
             L 72.543 2.519
             A 0.145 0.145 0 0 1 72.688 2.375
             L 78.298 2.375
             A 0.145 0.145 0 0 1 78.442 2.519
             L 78.442 15.764
             A 0.145 0.145 0 0 1 78.298 15.909
             L 72.698 15.909
             A 0.355 0.355 0 0 0 72.342 16.264
             L 72.342 17.714
             A 0.355 0.355 0 0 0 72.698 18.07
             L 79.394 18.07
             A 0.355 0.355 0 0 0 79.645 17.966
             L 83.329 14.282
             A 1.105 1.105 0 0 0 83.653 13.5
             L 83.653 -16.346
             A 1.605 1.605 0 0 0 83.025 -17.62
             L 82.267 -18.201
             A 1.605 1.605 0 0 0 80.874 -18.479
             L 54.542 -11.423
             A 0.105 0.105 0 0 0 54.478 -11.374
             A 0.105 0.105 0 0 0 54.468 -11.294
             L 55.137 -8.796
             A 1.105 1.105 0 0 0 55.652 -8.125
             L 57.384 -7.125
             A 1.105 1.105 0 0 0 58.223 -7.015
             L 75.428 -11.625
             A 2.395 2.395 0 0 1 78.36 -9.931
             A 2.395 2.395 0 0 1 78.442 -9.312
             L 78.442 -5.231
             A 2.395 2.395 0 0 1 76.048 -2.836
             L 69.276 -2.836
             A 2.105 2.105 0 0 0 67.787 -2.22
             L 65.959 -0.391
             A 2.105 2.105 0 0 0 65.342 1.098
             M 64.741 1.098
             L 64.741 -4.327
             A 2.105 2.105 0 0 0 62.636 -6.433
             L 60.636 -6.433
             A 1.105 1.105 0 0 0 59.53 -5.327
             L 59.53 9.118
             A 0.145 0.145 0 0 1 59.386 9.262
             L 58.826 9.262
             A 0.145 0.145 0 0 1 58.681 9.118
             L 58.681 8.618
             A 0.355 0.355 0 0 0 58.326 8.262
             L 57.896 8.262
             A 0.355 0.355 0 0 0 57.54 8.618
             L 57.54 9.118
             A 0.145 0.145 0 0 1 57.396 9.262
             L 51.786 9.262
             A 0.145 0.145 0 0 1 51.641 9.118
             L 51.641 -4.127
             A 0.145 0.145 0 0 1 51.786 -4.272
             L 57.386 -4.272
             A 0.355 0.355 0 0 0 57.741 -4.627
             L 57.741 -6.077
             A 0.355 0.355 0 0 0 57.386 -6.433
             L 50.689 -6.433
             A 0.355 0.355 0 0 0 50.438 -6.329
             L 46.754 -2.645
             A 1.105 1.105 0 0 0 46.43 -1.863
             L 46.43 27.983
             A 1.605 1.605 0 0 0 47.058 29.257
             L 47.816 29.838
             A 1.605 1.605 0 0 0 49.209 30.115
             L 75.541 23.06
             A 0.105 0.105 0 0 0 75.615 22.931
             L 74.946 20.433
             A 1.105 1.105 0 0 0 74.431 19.762
             L 72.699 18.762
             A 1.105 1.105 0 0 0 71.86 18.651
             L 54.655 23.261
             A 2.395 2.395 0 0 1 51.723 21.568
             A 2.395 2.395 0 0 1 51.641 20.948
             L 51.641 16.868
             A 2.395 2.395 0 0 1 54.036 14.473
             L 60.807 14.473
             A 2.105 2.105 0 0 0 62.296 13.856
             L 64.124 12.028
             A 2.105 2.105 0 0 0 64.741 10.539
             L 64.741 1.098" fill="none" stroke="#0000d3" stroke-width="0.1"/>
</g>
</g>
</svg>
