<?xml version="1.0" encoding="UTF-8" standalone="no"?>
<svg xmlns="http://www.w3.org/2000/svg" width="91.5mm" height="60mm" viewBox="0 0 91.5 60">
<desc>Created with Glowforge for Fusion 360. To download visit: https://cam.autodesk.com/hsmposts?p=glowforge</desc>
<!-- CAM Setup Info:
Work Area Width: 91.5mm
Work Area Height: 60mm
Work Area Too Small?: false
Stock box Upper Right: 43.75,28
Stock box Lower Left: -43.75,-28
Origin: 0,0
Selected Colors: #0000d3, #02abea, #1fb714, #dd0907, #f20884, #fbf305
-->
<g id="global-translation-frame" transform="translate(45.75, 30) scale(1, -1)">
<g id="opperation-1">
    <title>Lettering (Op: 1/3)</title>
    <path d="M 11.575 33.325
             L 11.575 36.464
             A 0.105 0.105 0 0 0 11.632 36.557
             L 12.265 36.887
             A 0.105 0.105 0 0 0 12.314 36.899
             L 12.582 36.899
             A 0.105 0.105 0 0 0 12.688 36.793
             L 12.688 34.502
             L 13.675 35.364
             A 0.105 0.105 0 0 0 13.744 35.39
             L 14.392 35.39
             A 0.105 0.105 0 0 0 14.497 35.285
             A 0.105 0.105 0 0 0 14.461 35.205
             L 13.245 34.141
             L 14.749 32.394
             A 0.105 0.105 0 0 0 14.738 32.245
             A 0.105 0.105 0 0 0 14.669 32.22
             L 13.608 32.22
             A 0.105 0.105 0 0 0 13.529 32.256
             L 12.688 33.23
             L 12.688 32.325
             A 0.105 0.105 0 0 0 12.582 32.22
             L 11.681 32.22
             A 0.105 0.105 0 0 0 11.575 32.325
             L 11.575 33.325
             M 9.266 33.427
             L 9.341 33.272
             L 9.437 33.14
             L 9.555 33.035
             L 9.68 32.972
             L 9.819 32.952
             L 9.932 32.963
             L 10.04 32.999
             L 10.139 33.06
             L 10.229 33.139
             L 10.315 33.242
             L 10.389 33.357
             L 10.534 33.647
             A 0.105 0.105 0 0 0 10.656 33.701
             L 11.084 33.586
             A 0.105 0.105 0 0 0 11.149 33.534
             A 0.105 0.105 0 0 0 11.157 33.451
             L 11.07 33.187
             A 0.105 0.105 0 0 0 11.065 33.173
             L 10.943 32.923
             A 0.105 0.105 0 0 0 10.935 32.909
             L 10.792 32.705
             A 0.105 0.105 0 0 0 10.78 32.691
             L 10.605 32.514
             A 0.105 0.105 0 0 0 10.591 32.502
             L 10.396 32.364
             A 0.105 0.105 0 0 0 10.378 32.354
             L 10.161 32.255
             A 0.105 0.105 0 0 0 10.142 32.249
             L 9.895 32.187
             A 0.105 0.105 0 0 0 9.877 32.184
             L 9.622 32.165
             A 0.105 0.105 0 0 0 9.608 32.165
             L 9.46 32.174
             L 9.452 32.174
             L 9.306 32.194
             A 0.105 0.105 0 0 0 9.293 32.197
             L 9.151 32.235
             L 9.144 32.237
             L 9.004 32.287
             A 0.105 0.105 0 0 0 8.988 32.294
             L 8.739 32.431
             A 0.105 0.105 0 0 0 8.726 32.439
             L 8.613 32.526
             L 8.608 32.53
             L 8.501 32.625
             A 0.105 0.105 0 0 0 8.489 32.637
             L 8.31 32.856
             A 0.105 0.105 0 0 0 8.299 32.873
             L 8.163 33.122
             A 0.105 0.105 0 0 0 8.156 33.137
             L 8.107 33.275
             L 8.105 33.283
             L 8.067 33.423
             A 0.105 0.105 0 0 0 8.064 33.436
             L 8.044 33.581
             L 8.044 33.589
             L 8.035 33.735
             A 0.105 0.105 0 0 0 8.035 33.748
             L 8.048 33.959
             A 0.105 0.105 0 0 0 8.05 33.973
             L 8.092 34.181
             A 0.105 0.105 0 0 0 8.095 34.195
             L 8.163 34.391
             A 0.105 0.105 0 0 0 8.168 34.403
             L 8.259 34.588
             A 0.105 0.105 0 0 0 8.266 34.6
             L 8.379 34.77
             A 0.105 0.105 0 0 0 8.387 34.78
             L 8.52 34.934
             A 0.105 0.105 0 0 0 8.529 34.944
             L 8.68 35.08
             A 0.105 0.105 0 0 0 8.691 35.088
             L 8.858 35.204
             A 0.105 0.105 0 0 0 8.87 35.211
             L 9.053 35.304
             A 0.105 0.105 0 0 0 9.065 35.309
             L 9.258 35.378
             A 0.105 0.105 0 0 0 9.271 35.382
             L 9.476 35.426
             A 0.105 0.105 0 0 0 9.491 35.428
             L 9.699 35.442
             A 0.105 0.105 0 0 0 9.71 35.442
             L 9.91 35.436
             L 9.919 35.435
             L 10.117 35.413
             A 0.105 0.105 0 0 0 10.129 35.411
             L 10.283 35.375
             A 0.105 0.105 0 0 0 10.297 35.371
             L 10.444 35.314
             A 0.105 0.105 0 0 0 10.459 35.306
             L 10.586 35.232
             A 0.105 0.105 0 0 0 10.6 35.223
             L 10.713 35.129
             A 0.105 0.105 0 0 0 10.722 35.121
             L 10.836 35.002
             A 0.105 0.105 0 0 0 10.843 34.994
             L 10.945 34.865
             A 0.105 0.105 0 0 0 10.967 34.785
             A 0.105 0.105 0 0 0 10.926 34.715
             L 10.405 34.327
             A 0.105 0.105 0 0 0 10.258 34.349
             A 0.105 0.105 0 0 0 10.244 34.375
             L 10.197 34.499
             L 10.152 34.585
             L 10.097 34.662
             L 10.016 34.746
             L 9.925 34.81
             L 9.8 34.859
             L 9.665 34.872
             L 9.556 34.858
             L 9.458 34.815
             L 9.369 34.744
             L 9.294 34.653
             L 9.228 34.533
             L 9.181 34.401
             L 9.151 34.248
             L 9.142 34.091
             L 9.154 33.865
             L 9.194 33.642
             L 9.255 33.451
             L 9.266 33.427
             M 6.56 33.443
             L 6.569 33.604
             L 6.559 33.861
             L 6.527 34.116
             L 6.48 34.328
             L 6.401 34.525
             L 6.308 34.67
             L 6.184 34.786
             L 6.115 34.825
             L 6.041 34.855
             L 5.962 34.869
             L 5.883 34.875
             L 5.806 34.86
             L 5.737 34.819
             L 5.657 34.739
             L 5.59 34.64
             L 5.526 34.505
             L 5.48 34.363
             L 5.449 34.197
             L 5.439 34.027
             L 5.451 33.766
             L 5.489 33.509
             L 5.548 33.294
             L 5.632 33.091
             L 5.727 32.946
             L 5.848 32.825
             L 5.907 32.788
             L 5.97 32.759
             L 6.037 32.744
             L 6.105 32.738
             L 6.192 32.753
             L 6.271 32.795
             L 6.353 32.876
             L 6.421 32.976
             L 6.485 33.113
             L 6.529 33.26
             L 6.559 33.43
             L 6.56 33.443
             M 4.317 33.375
             L 4.299 33.44
             A 0.105 0.105 0 0 0 4.296 33.453
             L 4.276 33.603
             L 4.275 33.612
             L 4.266 33.764
             A 0.105 0.105 0 0 0 4.266 33.776
             L 4.275 33.937
             L 4.275 33.945
             L 4.296 34.103
             A 0.105 0.105 0 0 0 4.298 34.117
             L 4.338 34.271
             L 4.341 34.279
             L 4.393 34.432
             A 0.105 0.105 0 0 0 4.398 34.445
             L 4.466 34.581
             L 4.47 34.588
             L 4.548 34.717
             A 0.105 0.105 0 0 0 4.555 34.728
             L 4.648 34.847
             L 4.653 34.853
             L 4.756 34.966
             A 0.105 0.105 0 0 0 4.766 34.975
             L 4.883 35.074
             L 4.89 35.079
             L 5.013 35.168
             A 0.105 0.105 0 0 0 5.024 35.175
             L 5.158 35.247
             L 5.165 35.251
             L 5.305 35.314
             A 0.105 0.105 0 0 0 5.316 35.319
             L 5.475 35.37
             L 5.483 35.372
             L 5.644 35.411
             A 0.105 0.105 0 0 0 5.657 35.413
             L 5.822 35.433
             L 5.829 35.434
             L 5.996 35.442
             A 0.105 0.105 0 0 0 6.007 35.442
             L 6.174 35.434
             L 6.181 35.433
             L 6.346 35.414
             A 0.105 0.105 0 0 0 6.358 35.412
             L 6.519 35.374
             L 6.526 35.372
             L 6.686 35.322
             A 0.105 0.105 0 0 0 6.697 35.318
             L 6.836 35.257
             L 6.843 35.254
             L 6.977 35.184
             A 0.105 0.105 0 0 0 6.988 35.177
             L 7.113 35.091
             L 7.119 35.087
             L 7.238 34.991
             A 0.105 0.105 0 0 0 7.248 34.982
             L 7.35 34.877
             L 7.356 34.871
             L 7.449 34.759
             A 0.105 0.105 0 0 0 7.457 34.748
             L 7.535 34.624
             L 7.539 34.617
             L 7.609 34.488
             A 0.105 0.105 0 0 0 7.614 34.475
             L 7.668 34.335
             L 7.67 34.326
             L 7.711 34.183
             A 0.105 0.105 0 0 0 7.714 34.169
             L 7.735 34.022
             L 7.736 34.013
             L 7.745 33.863
             A 0.105 0.105 0 0 0 7.745 33.851
             L 7.736 33.692
             L 7.735 33.685
             L 7.714 33.529
             A 0.105 0.105 0 0 0 7.711 33.515
             L 7.671 33.363
             L 7.668 33.356
             L 7.615 33.206
             A 0.105 0.105 0 0 0 7.61 33.195
             L 7.543 33.057
             L 7.539 33.05
             L 7.461 32.918
             A 0.105 0.105 0 0 0 7.454 32.907
             L 7.361 32.786
             L 7.356 32.78
             L 7.253 32.665
             A 0.105 0.105 0 0 0 7.244 32.656
             L 7.126 32.554
             L 7.12 32.549
             L 6.996 32.456
             A 0.105 0.105 0 0 0 6.985 32.449
             L 6.851 32.372
             L 6.844 32.368
             L 6.704 32.3
             A 0.105 0.105 0 0 0 6.691 32.295
             L 6.532 32.241
             L 6.524 32.239
             L 6.363 32.198
             A 0.105 0.105 0 0 0 6.35 32.195
             L 6.185 32.175
             L 6.177 32.174
             L 6.01 32.165
             A 0.105 0.105 0 0 0 5.999 32.165
             L 5.832 32.173
             L 5.825 32.174
             L 5.66 32.193
             A 0.105 0.105 0 0 0 5.648 32.195
             L 5.486 32.233
             L 5.479 32.235
             L 5.32 32.285
             A 0.105 0.105 0 0 0 5.308 32.29
             L 5.168 32.352
             L 5.162 32.356
             L 5.028 32.427
             A 0.105 0.105 0 0 0 5.017 32.434
             L 4.892 32.521
             L 4.886 32.526
             L 4.767 32.622
             A 0.105 0.105 0 0 0 4.757 32.631
             L 4.656 32.738
             L 4.651 32.744
             L 4.558 32.857
             A 0.105 0.105 0 0 0 4.551 32.868
             L 4.473 32.992
             L 4.469 32.998
             L 4.4 33.128
             A 0.105 0.105 0 0 0 4.394 33.142
             L 4.342 33.286
             L 4.339 33.294
             L 4.317 33.375
             M 2.702 33.325
             L 2.702 36.464
             A 0.105 0.105 0 0 0 2.759 36.557
             L 3.383 36.887
             A 0.105 0.105 0 0 0 3.432 36.899
             L 3.701 36.899
             A 0.105 0.105 0 0 0 3.806 36.793
             L 3.806 32.325
             A 0.105 0.105 0 0 0 3.701 32.22
             L 2.808 32.22
             A 0.105 0.105 0 0 0 2.702 32.325
             L 2.702 33.325
             M 1.319 33.343
             L 1.568 33.664
             A 0.105 0.105 0 0 0 1.714 33.685
             L 2.116 33.39
             A 0.105 0.105 0 0 0 2.14 33.244
             L 1.992 33.035
             A 0.105 0.105 0 0 0 1.986 33.027
             L 1.818 32.834
             A 0.105 0.105 0 0 0 1.811 32.826
             L 1.616 32.643
             A 0.105 0.105 0 0 0 1.606 32.635
             L 1.39 32.477
             A 0.105 0.105 0 0 0 1.379 32.47
             L 1.138 32.336
             A 0.105 0.105 0 0 0 1.126 32.33
             L 0.87 32.227
             A 0.105 0.105 0 0 0 0.855 32.223
             L 0.574 32.157
             A 0.105 0.105 0 0 0 0.557 32.154
             L 0.269 32.133
             A 0.105 0.105 0 0 0 0.257 32.133
             L 0.019 32.143
             L 0.013 32.144
             L -0.222 32.168
             A 0.105 0.105 0 0 0 -0.233 32.17
             L -0.465 32.219
             L -0.471 32.22
             L -0.7 32.284
             A 0.105 0.105 0 0 0 -0.712 32.288
             L -0.909 32.368
             L -0.916 32.371
             L -1.105 32.464
             A 0.105 0.105 0 0 0 -1.117 32.47
             L -1.294 32.585
             L -1.3 32.59
             L -1.47 32.718
             A 0.105 0.105 0 0 0 -1.48 32.727
             L -1.625 32.871
             L -1.631 32.877
             L -1.762 33.03
             A 0.105 0.105 0 0 0 -1.77 33.041
             L -1.88 33.21
             L -1.885 33.217
             L -1.981 33.396
             A 0.105 0.105 0 0 0 -1.988 33.41
             L -2.063 33.614
             L -2.065 33.622
             L -2.123 33.829
             A 0.105 0.105 0 0 0 -2.126 33.843
             L -2.155 34.057
             L -2.155 34.065
             L -2.167 34.282
             A 0.105 0.105 0 0 0 -2.167 34.293
             L -2.156 34.505
             L -2.155 34.513
             L -2.127 34.722
             A 0.105 0.105 0 0 0 -2.125 34.735
             L -2.07 34.939
             L -2.068 34.947
             L -1.997 35.147
             A 0.105 0.105 0 0 0 -1.991 35.16
             L -1.899 35.338
             L -1.895 35.345
             L -1.79 35.515
             A 0.105 0.105 0 0 0 -1.782 35.526
             L -1.656 35.68
             L -1.65 35.687
             L -1.511 35.832
             A 0.105 0.105 0 0 0 -1.501 35.841
             L -1.336 35.972
             L -1.33 35.977
             L -1.157 36.095
             A 0.105 0.105 0 0 0 -1.146 36.101
             L -0.96 36.197
             L -0.953 36.2
             L -0.76 36.283
             A 0.105 0.105 0 0 0 -0.748 36.288
             L -0.522 36.354
             L -0.515 36.356
             L -0.286 36.407
             A 0.105 0.105 0 0 0 -0.274 36.409
             L -0.041 36.434
             L -0.034 36.434
             L 0.202 36.445
             A 0.105 0.105 0 0 0 0.213 36.445
             L 0.525 36.426
             A 0.105 0.105 0 0 0 0.54 36.424
             L 0.846 36.362
             A 0.105 0.105 0 0 0 0.86 36.358
             L 1.122 36.266
             A 0.105 0.105 0 0 0 1.136 36.261
             L 1.382 36.133
             A 0.105 0.105 0 0 0 1.394 36.125
             L 1.612 35.973
             A 0.105 0.105 0 0 0 1.624 35.963
             L 1.817 35.78
             A 0.105 0.105 0 0 0 1.825 35.772
             L 1.997 35.567
             A 0.105 0.105 0 0 0 2.004 35.557
             L 2.153 35.334
             A 0.105 0.105 0 0 0 2.125 35.19
             L 1.721 34.906
             A 0.105 0.105 0 0 0 1.576 34.929
             L 1.449 35.097
             L 1.312 35.253
             L 1.172 35.39
             L 1.019 35.511
             L 0.863 35.608
             L 0.697 35.682
             L 0.527 35.73
             L 0.354 35.745
             L 0.112 35.722
             L -0.121 35.652
             L -0.228 35.599
             L -0.33 35.537
             L -0.423 35.461
             L -0.511 35.378
             L -0.594 35.274
             L -0.669 35.166
             L -0.731 35.048
             L -0.784 34.925
             L -0.829 34.77
             L -0.864 34.613
             L -0.881 34.452
             L -0.887 34.288
             L -0.88 34.123
             L -0.863 33.963
             L -0.827 33.806
             L -0.779 33.652
             L -0.722 33.528
             L -0.658 33.409
             L -0.58 33.3
             L -0.494 33.196
             L -0.403 33.113
             L -0.307 33.037
             L -0.202 32.975
             L -0.093 32.921
             L 0.142 32.85
             L 0.386 32.827
             L 0.561 32.842
             L 0.73 32.889
             L 0.887 32.967
             L 1.035 33.068
             L 1.18 33.193
             L 1.311 33.333
             L 1.319 33.343
             M -4.022 34.672
             L -4.065 34.731
             L -4.126 34.792
             L -4.197 34.838
             L -4.264 34.863
             L -4.331 34.872
             L -4.421 34.856
             L -4.503 34.811
             L -4.594 34.728
             L -4.667 34.624
             L -4.737 34.478
             L -4.786 34.32
             L -4.822 34.127
             L -4.832 33.929
             L -4.82 33.706
             L -4.78 33.486
             L -4.721 33.298
             L -4.638 33.12
             L -4.55 32.99
             L -4.442 32.883
             L -4.343 32.825
             L -4.233 32.805
             L -4.156 32.815
             L -4.064 32.853
             L -3.975 32.908
             L -3.925 32.958
             L -3.925 34.332
             L -3.935 34.45
             L -3.965 34.56
             L -4.007 34.65
             L -4.022 34.672
             M -5.806 34.509
             L -5.793 34.533
             L -5.79 34.54
             L -5.71 34.67
             A 0.105 0.105 0 0 0 -5.703 34.68
             L -5.609 34.801
             L -5.605 34.807
             L -5.502 34.921
             A 0.105 0.105 0 0 0 -5.493 34.93
             L -5.375 35.034
             L -5.369 35.039
             L -5.245 35.134
             A 0.105 0.105 0 0 0 -5.235 35.141
             L -5.101 35.222
             L -5.095 35.225
             L -4.954 35.298
             A 0.105 0.105 0 0 0 -4.942 35.303
             L -4.788 35.359
             L -4.78 35.362
             L -4.624 35.406
             A 0.105 0.105 0 0 0 -4.61 35.408
             L -4.449 35.431
             L -4.441 35.432
             L -4.277 35.442
             A 0.105 0.105 0 0 0 -4.266 35.442
             L -4.144 35.437
             L -4.135 35.437
             L -4.014 35.421
             A 0.105 0.105 0 0 0 -4.001 35.418
             L -3.925 35.398
             L -3.925 36.464
             A 0.105 0.105 0 0 0 -3.869 36.557
             L -3.244 36.887
             A 0.105 0.105 0 0 0 -3.195 36.899
             L -2.926 36.899
             A 0.105 0.105 0 0 0 -2.821 36.793
             L -2.821 32.325
             A 0.105 0.105 0 0 0 -2.926 32.22
             L -3.819 32.22
             A 0.105 0.105 0 0 0 -3.924 32.315
             L -3.939 32.307
             A 0.105 0.105 0 0 0 -3.953 32.3
             L -4.138 32.225
             A 0.105 0.105 0 0 0 -4.152 32.22
             L -4.341 32.173
             A 0.105 0.105 0 0 0 -4.357 32.17
             L -4.55 32.154
             A 0.105 0.105 0 0 0 -4.567 32.154
             L -4.703 32.163
             L -4.712 32.164
             L -4.845 32.186
             A 0.105 0.105 0 0 0 -4.86 32.189
             L -4.989 32.23
             L -4.997 32.233
             L -5.123 32.286
             A 0.105 0.105 0 0 0 -5.139 32.294
             L -5.368 32.44
             A 0.105 0.105 0 0 0 -5.383 32.452
             L -5.58 32.639
             A 0.105 0.105 0 0 0 -5.593 32.654
             L -5.757 32.883
             A 0.105 0.105 0 0 0 -5.766 32.899
             L -5.888 33.152
             A 0.105 0.105 0 0 0 -5.894 33.166
             L -5.938 33.306
             L -5.94 33.313
             L -5.974 33.455
             A 0.105 0.105 0 0 0 -5.977 33.47
             L -6.002 33.761
             A 0.105 0.105 0 0 0 -6.003 33.778
             L -5.992 33.927
             L -5.991 33.935
             L -5.969 34.082
             A 0.105 0.105 0 0 0 -5.966 34.096
             L -5.925 34.238
             L -5.922 34.246
             L -5.869 34.386
             A 0.105 0.105 0 0 0 -5.864 34.397
             L -5.806 34.509
             M -7.28 34.375
             L -7.28 32.325
             A 0.105 0.105 0 0 0 -7.386 32.22
             L -8.282 32.22
             A 0.105 0.105 0 0 0 -8.387 32.325
             L -8.387 35.016
             A 0.105 0.105 0 0 0 -8.331 35.109
             L -7.704 35.439
             A 0.105 0.105 0 0 0 -7.578 35.417
             L -7.379 35.204
             L -7.303 35.271
             A 0.105 0.105 0 0 0 -7.289 35.282
             L -7.116 35.391
             A 0.105 0.105 0 0 0 -7.096 35.401
             L -6.911 35.47
             A 0.105 0.105 0 0 0 -6.887 35.476
             L -6.69 35.499
             A 0.105 0.105 0 0 0 -6.667 35.499
             L -6.487 35.48
             A 0.105 0.105 0 0 0 -6.462 35.474
             L -6.292 35.413
             A 0.105 0.105 0 0 0 -6.277 35.406
             L -6.136 35.327
             A 0.105 0.105 0 0 0 -6.126 35.32
             L -5.995 35.226
             A 0.105 0.105 0 0 0 -5.968 35.083
             L -6.277 34.606
             A 0.105 0.105 0 0 0 -6.349 34.559
             A 0.105 0.105 0 0 0 -6.431 34.581
             L -6.539 34.667
             L -6.62 34.717
             L -6.701 34.742
             L -6.8 34.751
             L -6.873 34.745
             L -6.948 34.725
             L -7.021 34.695
             L -7.09 34.654
             L -7.154 34.605
             L -7.211 34.548
             L -7.255 34.489
             L -7.28 34.441
             L -7.28 34.375
             M -10.214 33.271
             L -10.214 33.68
             L -10.319 33.627
             L -10.434 33.551
             L -10.539 33.465
             L -10.624 33.375
             L -10.692 33.277
             L -10.732 33.181
             L -10.745 33.08
             L -10.733 32.99
             L -10.696 32.921
             L -10.641 32.884
             L -10.567 32.871
             L -10.485 32.883
             L -10.404 32.92
             L -10.214 33.053
             L -10.214 33.271
             M -11.82 33.298
             A 0.105 0.105 0 0 0 -11.816 33.31
             L -11.769 33.415
             A 0.105 0.105 0 0 0 -11.763 33.427
             L -11.701 33.527
             A 0.105 0.105 0 0 0 -11.687 33.546
             L -11.516 33.723
             A 0.105 0.105 0 0 0 -11.501 33.736
             L -11.299 33.877
             A 0.105 0.105 0 0 0 -11.286 33.884
             L -11.028 34.016
             A 0.105 0.105 0 0 0 -11.018 34.02
             L -10.748 34.126
             L -10.742 34.128
             L -10.214 34.298
             L -10.214 34.508
             L -10.219 34.619
             L -10.239 34.721
             L -10.264 34.788
             L -10.3 34.844
             L -10.337 34.879
             L -10.384 34.903
             L -10.444 34.919
             L -10.507 34.925
             L -10.583 34.917
             L -10.653 34.894
             L -10.712 34.858
             L -10.763 34.81
             L -10.808 34.749
             L -10.844 34.679
             L -10.872 34.599
             L -10.893 34.509
             A 0.105 0.105 0 0 0 -10.996 34.428
             L -11.75 34.428
             A 0.105 0.105 0 0 0 -11.856 34.533
             A 0.105 0.105 0 0 0 -11.849 34.569
             L -11.786 34.745
             A 0.105 0.105 0 0 0 -11.776 34.765
             L -11.678 34.924
             A 0.105 0.105 0 0 0 -11.666 34.94
             L -11.535 35.082
             A 0.105 0.105 0 0 0 -11.52 35.096
             L -11.365 35.211
             A 0.105 0.105 0 0 0 -11.35 35.22
             L -11.16 35.317
             A 0.105 0.105 0 0 0 -11.145 35.323
             L -10.942 35.39
             A 0.105 0.105 0 0 0 -10.928 35.394
             L -10.69 35.438
             A 0.105 0.105 0 0 0 -10.677 35.44
             L -10.435 35.454
             A 0.105 0.105 0 0 0 -10.425 35.454
             L -10.148 35.441
             A 0.105 0.105 0 0 0 -10.136 35.44
             L -9.863 35.394
             A 0.105 0.105 0 0 0 -9.847 35.391
             L -9.65 35.326
             A 0.105 0.105 0 0 0 -9.632 35.318
             L -9.45 35.218
             A 0.105 0.105 0 0 0 -9.432 35.205
             L -9.305 35.093
             A 0.105 0.105 0 0 0 -9.286 35.071
             L -9.194 34.929
             A 0.105 0.105 0 0 0 -9.182 34.905
             L -9.127 34.744
             A 0.105 0.105 0 0 0 -9.122 34.72
             L -9.105 34.55
             A 0.105 0.105 0 0 0 -9.104 34.539
             L -9.104 32.85
             L -9.097 32.778
             L -9.083 32.716
             L -9.054 32.66
             L -9.018 32.608
             L -8.891 32.501
             L -8.731 32.419
             A 0.105 0.105 0 0 0 -8.685 32.277
             A 0.105 0.105 0 0 0 -8.779 32.22
             L -9.843 32.22
             A 0.105 0.105 0 0 0 -9.858 32.221
             L -9.904 32.228
             A 0.105 0.105 0 0 0 -9.932 32.236
             L -9.975 32.255
             A 0.105 0.105 0 0 0 -10 32.271
             L -10.079 32.337
             A 0.105 0.105 0 0 0 -10.098 32.36
             L -10.145 32.43
             L -10.191 32.389
             A 0.105 0.105 0 0 0 -10.199 32.382
             L -10.275 32.325
             A 0.105 0.105 0 0 0 -10.286 32.319
             L -10.368 32.271
             A 0.105 0.105 0 0 0 -10.38 32.265
             L -10.475 32.226
             A 0.105 0.105 0 0 0 -10.487 32.222
             L -10.586 32.195
             A 0.105 0.105 0 0 0 -10.597 32.192
             L -10.725 32.172
             A 0.105 0.105 0 0 0 -10.738 32.17
             L -10.867 32.165
             A 0.105 0.105 0 0 0 -10.879 32.165
             L -11.066 32.178
             A 0.105 0.105 0 0 0 -11.084 32.181
             L -11.266 32.226
             A 0.105 0.105 0 0 0 -11.285 32.232
             L -11.431 32.298
             A 0.105 0.105 0 0 0 -11.449 32.308
             L -11.58 32.401
             A 0.105 0.105 0 0 0 -11.598 32.417
             L -11.697 32.529
             A 0.105 0.105 0 0 0 -11.71 32.547
             L -11.784 32.678
             A 0.105 0.105 0 0 0 -11.793 32.699
             L -11.839 32.849
             A 0.105 0.105 0 0 0 -11.843 32.87
             L -11.858 33.026
             A 0.105 0.105 0 0 0 -11.858 33.045
             L -11.848 33.163
             A 0.105 0.105 0 0 0 -11.846 33.175
             L -11.823 33.288
             L -11.82 33.298
             M -12.145 33.262
             A 0.105 0.105 0 0 0 -12.155 33.244
             L -12.302 33.035
             A 0.105 0.105 0 0 0 -12.309 33.027
             L -12.477 32.834
             A 0.105 0.105 0 0 0 -12.484 32.826
             L -12.679 32.643
             A 0.105 0.105 0 0 0 -12.689 32.635
             L -12.904 32.477
             A 0.105 0.105 0 0 0 -12.916 32.47
             L -13.157 32.336
             A 0.105 0.105 0 0 0 -13.169 32.33
             L -13.425 32.227
             A 0.105 0.105 0 0 0 -13.44 32.223
             L -13.721 32.157
             A 0.105 0.105 0 0 0 -13.738 32.154
             L -14.026 32.133
             A 0.105 0.105 0 0 0 -14.038 32.133
             L -14.275 32.143
             L -14.282 32.144
             L -14.517 32.168
             A 0.105 0.105 0 0 0 -14.528 32.17
             L -14.76 32.219
             L -14.766 32.22
             L -14.995 32.284
             A 0.105 0.105 0 0 0 -15.006 32.288
             L -15.204 32.368
             L -15.21 32.371
             L -15.4 32.464
             A 0.105 0.105 0 0 0 -15.411 32.47
             L -15.589 32.585
             L -15.595 32.59
             L -15.765 32.718
             A 0.105 0.105 0 0 0 -15.775 32.727
             L -15.92 32.871
             L -15.925 32.877
             L -16.057 33.03
             A 0.105 0.105 0 0 0 -16.065 33.041
             L -16.175 33.21
             L -16.179 33.217
             L -16.276 33.396
             A 0.105 0.105 0 0 0 -16.283 33.41
             L -16.358 33.614
             L -16.36 33.622
             L -16.418 33.829
             A 0.105 0.105 0 0 0 -16.42 33.843
             L -16.449 34.057
             L -16.45 34.065
             L -16.462 34.282
             A 0.105 0.105 0 0 0 -16.462 34.293
             L -16.45 34.505
             L -16.45 34.513
             L -16.422 34.722
             A 0.105 0.105 0 0 0 -16.42 34.736
             L -16.365 34.939
             L -16.363 34.947
             L -16.292 35.147
             A 0.105 0.105 0 0 0 -16.286 35.16
             L -16.194 35.338
             L -16.19 35.345
             L -16.085 35.515
             A 0.105 0.105 0 0 0 -16.077 35.526
             L -15.951 35.68
             L -15.945 35.687
             L -15.806 35.832
             A 0.105 0.105 0 0 0 -15.796 35.841
             L -15.631 35.972
             L -15.625 35.977
             L -15.452 36.095
             A 0.105 0.105 0 0 0 -15.441 36.101
             L -15.255 36.197
             L -15.248 36.2
             L -15.055 36.283
             A 0.105 0.105 0 0 0 -15.043 36.288
             L -14.816 36.354
             L -14.809 36.356
             L -14.58 36.407
             A 0.105 0.105 0 0 0 -14.569 36.409
             L -14.335 36.434
             L -14.329 36.434
             L -14.093 36.445
             A 0.105 0.105 0 0 0 -14.082 36.445
             L -13.77 36.426
             A 0.105 0.105 0 0 0 -13.755 36.424
             L -13.449 36.362
             A 0.105 0.105 0 0 0 -13.435 36.358
             L -13.173 36.266
             A 0.105 0.105 0 0 0 -13.159 36.261
             L -12.912 36.133
             A 0.105 0.105 0 0 0 -12.9 36.125
             L -12.683 35.973
             A 0.105 0.105 0 0 0 -12.671 35.963
             L -12.478 35.78
             A 0.105 0.105 0 0 0 -12.47 35.772
             L -12.298 35.567
             A 0.105 0.105 0 0 0 -12.291 35.557
             L -12.142 35.334
             A 0.105 0.105 0 0 0 -12.169 35.19
             L -12.574 34.906
             A 0.105 0.105 0 0 0 -12.718 34.929
             L -12.846 35.097
             L -12.983 35.253
             L -13.123 35.39
             L -13.276 35.511
             L -13.432 35.608
             L -13.598 35.682
             L -13.767 35.73
             L -13.94 35.745
             L -14.183 35.722
             L -14.416 35.652
             L -14.522 35.599
             L -14.625 35.537
             L -14.718 35.461
             L -14.805 35.378
             L -14.889 35.274
             L -14.964 35.166
             L -15.025 35.048
             L -15.079 34.925
             L -15.124 34.77
             L -15.159 34.613
             L -15.176 34.452
             L -15.182 34.288
             L -15.175 34.123
             L -15.158 33.963
             L -15.121 33.806
             L -15.073 33.652
             L -15.017 33.528
             L -14.953 33.409
             L -14.875 33.3
             L -14.789 33.196
             L -14.698 33.113
             L -14.602 33.037
             L -14.496 32.975
             L -14.388 32.921
             L -14.152 32.85
             L -13.908 32.827
             L -13.734 32.842
             L -13.565 32.889
             L -13.407 32.967
             L -13.26 33.068
             L -13.115 33.193
             L -12.983 33.333
             L -12.726 33.664
             A 0.105 0.105 0 0 0 -12.581 33.685
             L -12.179 33.39
             A 0.105 0.105 0 0 0 -12.145 33.262" fill="none" stroke="#0000d3" stroke-width="0.1"/>
</g>
<g id="opperation-2">
    <title>Arrows (Op: 2/3)</title>
    <path d="M -4.886 44.088
             L -5.695 43.279
             L -4.886 42.47
             M -1.653 39.237
             L -0.844 38.428
             L -0.035 39.237
             M 3.198 42.47
             L 4.007 43.279
             L 3.198 44.088" fill="none" stroke="#02abea" stroke-width="0.1"/>
</g>
<g id="opperation-3">
    <title>Perimeter (Op: 3/3)</title>
    <path d="M -43.699 31.781
             L -43.699 47.481
             A 2.105 2.105 0 0 0 -41.594 49.586
             L -7.919 49.586
             A 1.105 1.105 0 0 0 -7.137 49.262
             L -4.143 46.269
             A 1.105 1.105 0 0 0 -3.82 45.487
             L -3.82 42.125
             A 0.895 0.895 0 0 1 -3.558 41.492
             L -2.658 40.592
             A 0.895 0.895 0 0 1 -2.025 40.33
             L 0.337 40.33
             A 0.895 0.895 0 0 1 0.97 40.592
             L 1.87 41.492
             A 0.895 0.895 0 0 1 2.132 42.125
             L 2.132 45.487
             A 1.105 1.105 0 0 0 2.455 46.269
             L 5.449 49.262
             A 1.105 1.105 0 0 0 6.231 49.586
             L 39.906 49.586
             A 2.105 2.105 0 0 0 42.011 47.481
             L 42.011 31.781
             A 2.105 2.105 0 0 0 39.906 29.675
             L 26.211 29.675
             A 1.105 1.105 0 0 0 25.106 30.781
             L 25.106 42.476
             A 1.105 1.105 0 0 0 26.211 43.581
             L 30.711 43.581
             A 0.395 0.395 0 0 1 31.106 43.976
             L 31.106 44.976
             A 0.395 0.395 0 0 1 30.711 45.37
             L 19.711 45.37
             A 0.895 0.895 0 0 1 18.816 44.476
             L 18.816 33.195
             A 1.105 1.105 0 0 0 18.493 32.413
             L 16.078 29.999
             A 1.105 1.105 0 0 0 15.297 29.675
             L -16.985 29.675
             A 1.105 1.105 0 0 0 -17.766 29.999
             L -20.181 32.413
             A 1.105 1.105 0 0 0 -20.504 33.195
             L -20.504 44.476
             A 0.895 0.895 0 0 1 -21.399 45.37
             L -32.399 45.37
             A 0.395 0.395 0 0 1 -32.794 44.976
             L -32.794 43.976
             A 0.395 0.395 0 0 1 -32.399 43.581
             L -27.899 43.581
             A 1.105 1.105 0 0 0 -26.794 42.476
             L -26.794 30.781
             A 1.105 1.105 0 0 0 -27.899 29.675
             L -41.594 29.675
             A 2.105 2.105 0 0 0 -43.699 31.781" fill="none" stroke="#1fb714" stroke-width="0.1"/>
</g>
</g>
</svg>
